# xmcd
#
# Track frame offsets:
#	150
#	16405
#	32575
#	50071
#	63392
#	81020
#	96447
#	110815
#	127962
#	143557
#	156050
#	171343
#	190503
#	204964
#	218607
#	234000
#	246071
#
# Disc length: 3518 seconds
#
# Revision: 2
# Processed by: cddbd v1.5.2PL0 Copyright (c) Steve Scherf et al.
# Submitted via: EasyCDDAExtractor 2010.4.0.0
#
DISCID=db0dbc11
DTITLE=Luan Santana - Ao Vivo
DYEAR=2009
DGENRE=Serteneja
TTITLE0=Meteoro
TTITLE1=Você Não Sabe O Que É Amor
TTITLE2=Sinais
TTITLE3=Tô De Cara
TTITLE4=Aqui É O Seu Lugar - Digitais
TTITLE5=Minha Boca Você Não Beija Mais
TTITLE6=Jogo Do Amor
TTITLE7=Vou Voar
TTITLE8=Sempre Com Você
TTITLE9=Eu Tô Jogando Verde
TTITLE10=Sobrenatural
TTITLE11=Apaixonado - A Loira Do Carro Branco
TTITLE12=Pra Você Lembrar De Mim
TTITLE13=Você Do Meu Lado
TTITLE14=A Louca
TTITLE15=Chocolate
TTITLE16=Amigos Pela Fe
EXTD=
EXTT0=
EXTT1=
EXTT2=
EXTT3=
EXTT4=
EXTT5=
EXTT6=
EXTT7=
EXTT8=
EXTT9=
EXTT10=
EXTT11=
EXTT12=
EXTT13=
EXTT14=
EXTT15=
EXTT16=
PLAYORDER=
